<svg xmlns="http://www.w3.org/2000/svg" xmlns:xlink="http://www.w3.org/1999/xlink" width="256" height="256" viewBox="0 0 256 256" fill="none"><path     fill="#000000"  d="M0 256L256 256L256 0L0 0L0 256Z"></path><path d="M101.07 59.9801C116.764 53.9129 134.519 53.3745 150.56 58.4468C161.631 61.92 171.856 68.0306 180.178 76.1132C187.88 83.5546 193.955 92.6691 197.856 102.642C203.714 117.553 204.606 134.362 200.34 149.807C197.369 160.734 191.862 170.959 184.398 179.474C176.247 188.798 165.747 196.043 154.141 200.362C152.987 200.747 151.861 201.342 150.613 201.3C149.329 201.352 147.963 200.792 147.307 199.643C146.681 198.656 146.73 197.446 146.748 196.326C146.798 190.268 146.846 184.212 146.851 178.155C146.885 175.725 146.754 173.275 146.173 170.908C145.466 167.976 144.091 165.106 141.793 163.094C147.743 162.428 153.725 161.208 159.132 158.557C162.864 156.74 166.24 154.158 168.829 150.901C172.017 146.948 173.955 142.113 174.966 137.166C175.744 133.368 176.036 129.482 176.001 125.61C175.951 120.688 174.762 115.752 172.338 111.454C171.219 109.458 169.865 107.598 168.323 105.909C170.739 99.5126 170.09 92.2769 167.563 86.0152C165.282 85.5813 162.95 86.0763 160.752 86.6951C155.774 88.1946 151.235 90.8353 146.944 93.717C134.752 90.3402 121.635 90.337 109.445 93.717C106.05 91.4524 102.511 89.3711 98.7263 87.8233C96.7575 87.0294 94.7213 86.3704 92.6189 86.041C91.3653 85.8561 90.0779 85.7661 88.8259 86.0104C86.2865 92.2737 85.6485 99.5142 88.0593 105.917C84.6858 109.596 82.2541 114.141 81.1531 119.014C80.3929 122.224 80.2804 125.544 80.4363 128.828C80.7095 135.463 82.0307 142.235 85.5006 147.983C88.0979 152.345 92.0098 155.85 96.5003 158.184C102.065 161.093 108.305 162.393 114.499 163.094C111.643 165.636 110.21 169.412 109.721 173.129C106.515 174.569 102.95 175.376 99.4303 174.995C96.7896 174.72 94.2374 173.671 92.1721 172.004C90.5264 170.693 89.1747 169.042 88.0754 167.256C86.5598 164.829 84.6295 162.613 82.2155 161.049C80.3479 159.836 78.1187 159.116 75.8799 159.265C74.9814 159.328 73.9962 159.376 73.2505 159.94C72.7314 160.332 72.8889 161.073 73.2151 161.54C74.1055 162.869 75.5263 163.695 76.8731 164.492C78.7696 165.858 80.1229 167.817 81.399 169.743C82.5401 171.559 83.6154 173.434 84.374 175.448C85.2756 177.721 86.8137 179.743 88.7954 181.183C91.2544 182.991 94.2615 183.896 97.2638 184.262C101.293 184.736 105.372 184.351 109.35 183.629C109.348 187.967 109.393 192.305 109.434 196.641C109.498 197.76 109.434 198.976 108.705 199.892C107.659 201.283 105.679 201.506 104.098 201.094C94.3644 197.837 85.3303 192.531 77.7169 185.651C68.9641 177.761 62.1046 167.782 57.9114 156.768C53.1058 144.251 51.8217 130.429 54.0814 117.222C56.2061 104.728 61.6031 92.8153 69.5716 82.9648C77.8101 72.7156 88.7874 64.6844 101.07 59.9801Z"   fill="#FFFFFF" ></path></svg>