<svg xmlns="http://www.w3.org/2000/svg" xmlns:xlink="http://www.w3.org/1999/xlink" width="256" height="256" viewBox="0 0 256 256" fill="none"><path     fill="#07C160"  d="M0 256L256 256L256 0L0 0L0 256Z"></path><path d="M53.0001 127.02C52.9397 106.057 71.8832 87.4034 92.8831 88.105C111.645 87.5969 127.552 99.5848 140.484 111.863C136.794 114.682 133.008 117.379 129.21 120.04C120.633 112.903 111.73 104.98 100.371 102.996C91.1291 101.024 80.5807 103.178 73.9517 110.242C65.4477 118.698 64.2622 133.54 71.738 143.024C78.5727 152.436 91.6977 155.98 102.609 152.557C112.722 149.593 120.657 141.996 127.044 133.915C136.673 121.419 144.137 107.472 152.29 94.0203C153.827 91.7945 155.194 88.8671 158.085 88.2622C161.024 87.3429 164.218 88.9276 165.488 91.6614C175.528 109.395 185.435 127.214 195.27 145.069C197.943 150.053 200.871 154.928 203 160.178L203 162.282C202.31 164.726 200.677 167.109 198.028 167.617C194.81 168.548 192.173 165.984 189.718 164.351C175.601 153.875 161.399 143.508 147.44 132.815C151.129 130.153 154.819 127.468 158.508 124.807C164.085 127.94 168.863 132.258 174.306 135.573C169.371 126.5 164.435 117.428 159.415 108.391C147.827 126.149 138.367 146.375 120.548 158.944C105.561 170.399 82.6009 171.246 67.8187 159.028C58.7461 151.782 53.1937 140.423 53.0001 128.811L53.0001 127.02Z"   fill="#FFFFFF" ></path></svg>