<svg xmlns="http://www.w3.org/2000/svg" xmlns:xlink="http://www.w3.org/1999/xlink" width="256" height="256" viewBox="0 0 256 256" fill="none"><path     fill="#FE2941"  d="M0 256L256 256L256 0L0 0L0 256Z"></path><path d="M109.593 112.029C112.003 111.995 114.413 111.995 116.823 112.007C116.834 119.816 116.829 127.63 116.829 135.439C116.789 138.136 116.969 140.844 116.643 143.529C114.306 143.473 111.975 143.473 109.643 143.484C109.615 142.417 109.593 141.344 109.587 140.282C107.84 142.304 105.351 143.894 102.587 143.675C98.6207 144.063 94.9016 141.439 93.2499 137.945C91.1038 133.338 91.3229 127.49 94.3791 123.327C96.7948 119.973 101.418 118.597 105.317 119.866C106.997 120.366 108.329 121.557 109.615 122.698C109.576 119.142 109.598 115.585 109.593 112.029ZM102.261 126.215C97.6544 128.271 98.4802 136.754 103.694 137.417C107.272 138.046 110.166 134.265 109.587 130.911C109.593 127.383 105.514 124.439 102.261 126.215Z"   fill="#FFFFFF" ></path><path d="M178.795 113.928C181.205 113.928 183.615 113.922 186.025 113.934C186.048 115.866 186.048 117.799 186.048 119.731C187.587 119.731 189.121 119.731 190.66 119.737C190.666 121.737 190.66 123.737 190.654 125.737C189.121 125.731 187.598 125.731 186.07 125.731C186.048 129.383 185.98 133.04 186.138 136.692C187.638 137.383 189.289 137.4 190.913 137.422C190.958 139.462 191.014 141.524 190.559 143.535C187.75 143.456 184.744 143.653 182.166 142.327C180.053 141.192 178.947 138.81 178.84 136.49C178.677 132.906 178.851 129.316 178.75 125.731C177.789 125.731 176.829 125.731 175.874 125.737C175.862 123.737 175.862 121.743 175.862 119.748C176.829 119.743 177.8 119.731 178.772 119.726C178.778 117.793 178.778 115.861 178.795 113.928Z"   fill="#FFFFFF" ></path><path d="M56.3004 123.321C58.1768 121.17 60.6712 119.512 63.6094 119.411C63.6487 121.995 63.6431 124.591 63.6094 127.181C61.7554 127.254 59.7554 127.063 58.0869 128.012C56.7274 128.844 56.2835 130.557 56.2835 132.063C56.2274 135.866 56.3397 139.675 56.2274 143.484C53.8791 143.473 51.5364 143.473 49.188 143.518C48.8173 135.602 49.1263 127.658 49.0307 119.731C51.4465 119.731 53.8622 119.726 56.2779 119.765C56.2779 120.951 56.2892 122.136 56.3004 123.321Z"   fill="#FFFFFF" ></path><path d="M70.5757 121.428C73.8734 119.226 78.1993 118.894 81.924 120.074C85.3341 121.17 88.0757 124.069 88.9802 127.54C89.5251 129.439 89.4465 131.434 89.3453 133.383C83.8453 133.411 78.3397 133.327 72.8397 133.434C72.9802 135.956 75.2611 138.203 77.8397 137.894C79.3172 137.838 80.3847 136.765 81.2386 135.675C83.806 135.608 86.379 135.613 88.9465 135.692C87.6824 139.636 84.3004 142.911 80.1375 143.529C77.1656 143.861 73.9521 143.799 71.3341 142.175C64.0251 138.108 63.7049 126.057 70.5757 121.428ZM72.7723 129.012C75.8847 129.49 79.1768 129.681 82.2611 128.962C81.6094 127.271 80.4745 125.462 78.4745 125.321C75.8566 124.675 73.5251 126.613 72.7723 129.012Z"   fill="#FFFFFF" ></path><path d="M121.975 143.243C122.036 135.423 121.997 127.597 121.997 119.771C124.424 119.726 126.851 119.726 129.278 119.737C129.284 120.72 129.289 121.703 129.295 122.692C132.205 119.288 137.52 118.479 141.357 120.737C144.284 122.445 145.626 125.979 145.621 129.243C145.626 133.99 145.666 138.743 145.581 143.496C143.278 143.473 140.975 143.467 138.671 143.535C137.902 138.715 138.767 133.782 138.211 128.939C137.688 125.709 133.244 124.512 130.896 126.563C129.615 127.602 129.255 129.349 129.284 130.928C129.25 135.113 129.34 139.299 129.244 143.484C126.817 143.445 124.379 143.658 121.975 143.243Z"   fill="#FFFFFF" ></path><path d="M151.199 124.546C155.559 117.883 166.615 117.664 171.362 123.99C173.739 127.035 174.205 131.186 173.385 134.872C172.508 138.636 169.587 141.804 165.93 143.018C163.43 143.956 160.722 143.653 158.121 143.501C154.121 142.428 150.896 139.417 149.587 135.484C149.199 131.81 148.879 127.692 151.199 124.546ZM160.452 125.76C156.441 126.602 155.986 131.647 157.182 134.821C158.295 137.142 161.267 138.254 163.559 136.995C166.418 135.49 166.935 131.602 165.907 128.821C165.171 126.619 162.71 125.265 160.452 125.76Z"   fill="#FFFFFF" ></path><path d="M198.548 121.288C202.609 118.776 208.166 118.743 212.227 121.276C216.194 123.782 217.879 128.928 216.969 133.411C211.469 133.417 205.969 133.271 200.475 133.496C201.042 135.17 201.8 137.136 203.711 137.642C205.66 138.473 207.862 137.473 208.918 135.726C211.503 135.574 214.093 135.619 216.688 135.675C215.564 139.473 212.458 142.541 208.57 143.406C205.188 144.012 201.469 143.776 198.531 141.833C191.711 137.366 191.694 125.72 198.548 121.288ZM200.93 128.271C200.812 128.439 200.57 128.776 200.447 128.951C203.486 129.698 206.654 129.085 209.75 129.428C209.598 128.4 209.548 127.254 208.716 126.518C206.418 124.26 201.918 125.069 200.93 128.271Z"   fill="#FFFFFF" ></path></svg>