<svg xmlns="http://www.w3.org/2000/svg" xmlns:xlink="http://www.w3.org/1999/xlink" width="256" height="256" viewBox="0 0 256 256" fill="none"><path     fill="#FA9D3B"  d="M0 256L256 256L256 0L0 0L0 256Z"></path><path d="M71.1492 74.284C74.9604 71.5331 80.1775 71.4016 84.4115 73.2045C90.7763 75.8787 95.6309 81.0134 100.167 86.0385C111.189 98.9437 119.788 113.646 128.504 128.135C137.422 113.263 146.263 98.1765 157.692 85.0411C161.937 80.4544 166.473 75.8239 172.316 73.3086C176.412 71.5057 181.47 71.4345 185.303 73.9224C189.631 76.6733 192.014 81.6052 193.019 86.4823C194.485 93.8035 194.057 101.333 193.349 108.72C191.849 122.633 188.752 136.35 184.677 149.732C181.855 158.538 178.807 167.382 174.111 175.399C171.739 179.208 168.779 183.197 164.287 184.567C158.383 186.069 152.387 183.46 147.807 179.844C139.679 173.405 133.781 164.686 128.493 155.896C123.583 164.133 118.08 172.221 110.788 178.556C106.449 182.255 101.035 185.417 95.1202 184.94C90.5402 184.852 86.9871 181.373 84.5104 177.865C79.9743 171.235 77.1131 163.656 74.4222 156.143C69.8148 142.646 66.41 128.732 64.3781 114.622C63.1974 105.766 62.3242 96.7298 63.7081 87.8468C64.5758 82.7067 66.7779 77.4021 71.1492 74.284ZM77.6843 87.8687C76.1686 93.0801 76.542 98.5929 76.899 103.941C78.0193 116.94 80.7706 129.757 84.3511 142.29C87.075 151.485 90.1612 160.691 94.9884 169.032C95.554 170.292 96.8885 171.251 98.3108 170.752C101.952 168.796 104.752 165.64 107.35 162.5C112.529 156.072 116.774 148.959 120.678 141.709C111.875 126.962 103.325 111.969 92.6435 98.4614C89.0355 94.0939 85.3671 89.584 80.5619 86.4714C79.4086 85.6055 77.9039 86.6029 77.6843 87.8687ZM176.588 86.3892C172.925 88.625 170.009 91.8526 167.203 95.0474C155.099 109.35 145.885 125.746 136.307 141.764C140.157 149.079 144.49 156.187 149.74 162.604C151.667 164.873 153.628 167.136 155.962 169.004C156.989 169.815 158.054 170.758 159.421 170.884C161.58 170.648 162.332 168.352 163.315 166.769C167.972 157.776 171.086 148.082 173.76 138.35C177.104 125.762 179.685 112.906 180.355 99.8807C180.438 95.8037 180.526 91.5951 179.235 87.6769C178.972 86.5481 177.665 85.6439 176.588 86.3892Z"   fill="#FFFFFF" ></path></svg>